<?xml version="1.0" encoding="utf-8"?>
<!-- Generator: Adobe Illustrator 21.0.0, SVG Export Plug-In . SVG Version: 6.00 Build 0)  -->
<svg version="1.1" id="Calque_1" xmlns="http://www.w3.org/2000/svg" xmlns:xlink="http://www.w3.org/1999/xlink" x="0px" y="0px"
	 viewBox="0 0 117.5 60" style="enable-background:new 0 0 117.5 60;" xml:space="preserve">
<style type="text/css">
	.st0{fill-rule:evenodd;clip-rule:evenodd;fill:#009EE0;}
	.st1{fill:#1D1D1B;}
</style>
<g>
	<path class="st0" d="M90.6,27l4.2,0C86.6,16.8,92.5,4,105.5,5.8c-2.9-2.4-10.6-2.3-14.8,1.2L90.6,27"/>
	<path class="st0" d="M115.6,1.8h-0.5c0.2,6-1.1,10.8-6.6,12.4c2.3,0,4.5,0.1,7-2.5L115.6,1.8z"/>
	<path class="st0" d="M115.6,14.7c-8.6,4-14.1,1.2-13.6-4.1c-2.9,5.8,4.1,11,13.6,7.6V14.7z"/>
	<path class="st0" d="M115.6,26.9l0-5.2c-16.4,3.9-23.3-11.1-12.3-14.3c-9.9-0.2-11.2,13.5-1.1,19.5H115.6z"/>
	<path class="st0" d="M90.5,1.8h21.1c2.2,5.7-0.1,10.4-6.4,10.8c6.5-3.9,4.3-9.3-3.6-10.3C96.9,1.8,93.7,2,90.5,3V1.8z"/>
	<g>
		<path class="st1" d="M0.9,18.5L5.4,18c0.3,1.6,0.8,2.9,1.6,3.6s1.9,1.2,3.3,1.2c1.5,0,2.6-0.3,3.4-1c0.8-0.7,1.1-1.5,1.1-2.4
			c0-0.6-0.2-1.1-0.5-1.5s-0.9-0.8-1.7-1.1c-0.5-0.2-1.8-0.6-3.7-1.1c-2.5-0.7-4.2-1.5-5.2-2.5c-1.4-1.4-2.1-3.1-2.1-5
			c0-1.3,0.3-2.5,1-3.6c0.7-1.1,1.6-2,2.8-2.5C6.8,1.5,8.3,1.2,10,1.2c2.9,0,5,0.7,6.5,2.1c1.4,1.4,2.2,3.2,2.3,5.5L14.2,9
			c-0.2-1.3-0.6-2.2-1.3-2.8S11.3,5.4,10,5.4c-1.3,0-2.4,0.3-3.1,0.9C6.4,6.7,6.1,7.2,6.1,7.8c0,0.6,0.2,1.1,0.7,1.5
			c0.6,0.5,2,1.1,4.2,1.7c2.2,0.6,3.9,1.2,5,1.8c1.1,0.6,1.9,1.5,2.5,2.5c0.6,1.1,0.9,2.4,0.9,4c0,1.4-0.4,2.8-1.1,4
			c-0.7,1.3-1.8,2.2-3.1,2.8c-1.3,0.6-3,0.9-5,0.9c-2.9,0-5.1-0.7-6.6-2.2C2.1,23.4,1.2,21.3,0.9,18.5z"/>
		<path class="st1" d="M37.9,17.4l4.5,1.6c-0.7,2.7-1.8,4.8-3.4,6.1s-3.6,2-6.1,2c-3,0-5.5-1.1-7.5-3.4c-2-2.3-2.9-5.4-2.9-9.3
			c0-4.2,1-7.4,2.9-9.7c2-2.3,4.5-3.5,7.7-3.5c2.8,0,5.1,0.9,6.8,2.7c1,1.1,1.8,2.6,2.3,4.6l-4.6,1.2c-0.3-1.3-0.8-2.3-1.7-3.1
			c-0.9-0.8-1.9-1.1-3.1-1.1c-1.7,0-3.1,0.7-4.1,2c-1.1,1.3-1.6,3.5-1.6,6.5c0,3.2,0.5,5.4,1.6,6.8c1,1.3,2.4,2,4,2
			c1.2,0,2.3-0.4,3.2-1.3C36.9,20.6,37.6,19.3,37.9,17.4z"/>
		<path class="st1" d="M46.4,26.6v-25h16.9v4.2H51v5.5h11.5v4.2H51v6.8h12.8v4.2H46.4z"/>
		<path class="st1" d="M72.8,26.6V5.9H66V1.6h18.1v4.2h-6.8v20.8H72.8z"/>
	</g>
	<g>
		<path class="st1" d="M9,58.4V38.3H2.7v-4.1h16.7v4.1h-6.2v20.1H9z"/>
		<path class="st1" d="M22.2,34.2h4.2v13.1c0,2.1,0.1,3.4,0.2,4c0.2,1,0.6,1.8,1.3,2.4c0.7,0.6,1.6,0.9,2.8,0.9
			c1.2,0,2.1-0.3,2.7-0.8c0.6-0.6,1-1.3,1.1-2.1c0.1-0.8,0.2-2.2,0.2-4.1V34.2h4.2v12.7c0,2.9-0.1,5-0.3,6.2c-0.2,1.2-0.7,2.2-1.3,3
			c-0.6,0.8-1.4,1.5-2.5,2s-2.4,0.7-4,0.7c-2,0-3.5-0.3-4.6-0.8s-1.9-1.2-2.5-2.1s-1-1.7-1.2-2.7c-0.3-1.4-0.4-3.4-0.4-6.1V34.2z"/>
		<path class="st1" d="M43.5,58.4V34.2h4.1l8.6,16.1V34.2h3.9v24.2h-4.3l-8.5-15.8v15.8H43.5z"/>
		<path class="st1" d="M64.5,58.4V34.2h4.2v24.2H64.5z"/>
		<path class="st1" d="M71.7,50.5l4.1-0.5c0.2,1.6,0.8,2.8,1.5,3.5c0.8,0.7,1.8,1.1,3.1,1.1c1.4,0,2.4-0.3,3.1-1s1-1.4,1-2.3
			c0-0.6-0.1-1.1-0.4-1.5s-0.8-0.8-1.5-1c-0.5-0.2-1.6-0.5-3.4-1.1c-2.3-0.6-3.9-1.4-4.8-2.4c-1.3-1.3-1.9-3-1.9-4.9
			c0-1.2,0.3-2.4,0.9-3.5c0.6-1.1,1.5-1.9,2.6-2.5c1.1-0.6,2.5-0.8,4.1-0.8c2.6,0,4.6,0.7,6,2c1.3,1.3,2,3.1,2.1,5.3L84,41.3
			c-0.2-1.2-0.6-2.1-1.2-2.7c-0.6-0.5-1.5-0.8-2.7-0.8c-1.2,0-2.2,0.3-2.9,0.9c-0.5,0.4-0.7,0.9-0.7,1.5c0,0.6,0.2,1.1,0.6,1.5
			c0.5,0.5,1.8,1.1,3.9,1.6c2.1,0.6,3.6,1.1,4.6,1.7c1,0.6,1.8,1.4,2.3,2.5c0.6,1,0.8,2.3,0.8,3.9c0,1.4-0.3,2.7-1,3.9
			s-1.6,2.1-2.8,2.7c-1.2,0.6-2.8,0.9-4.6,0.9c-2.7,0-4.7-0.7-6.1-2.1C72.9,55.3,72,53.2,71.7,50.5z"/>
		<path class="st1" d="M92.3,58.4V34.2h4.2v24.2H92.3z"/>
		<path class="st1" d="M100.6,58.4V34.2h15.6v4.1h-11.4v5.4h10.6v4.1h-10.6v6.6h11.8v4.1H100.6z"/>
	</g>
</g>
</svg>
